<svg xmlns="http://www.w3.org/2000/svg" version="1.1" xmlns:xlink="http://www.w3.org/1999/xlink" viewBox="0 0 200 200"><rect width="200" height="200" fill="url('#gradient')"></rect><defs><linearGradient id="gradient" gradientTransform="rotate(128 0.5 0.5)"><stop offset="0%" stop-color="#ffffff"></stop><stop offset="100%" stop-color="#00f6f6"></stop></linearGradient></defs><g><g fill="#000000" transform="matrix(2.2758716488401167,0,0,2.2758716488401167,19.731455172063704,117.08029907467399)" stroke="#ffffff" stroke-width="0"><path d="M4.95 0L1.65 0L1.65-8.28L0.12-8.28L0.12-10.57L1.65-10.57L1.65-11.41Q1.65-13.21 2.71-14.21Q3.78-15.21 5.70-15.21L5.70-15.21Q6.41-15.21 7.25-15L7.25-15L7.26-12.58Q6.95-12.67 6.45-12.67L6.45-12.67Q4.95-12.67 4.95-11.38L4.95-11.38L4.95-10.57L7.01-10.57L7.01-8.28L4.95-8.28L4.95 0ZM11.64-10.57L11.64 0L8.34 0L8.34-10.57L11.64-10.57ZM8.14-13.29L8.14-13.29Q8.14-13.99 8.65-14.44Q9.16-14.89 9.97-14.89Q10.78-14.89 11.29-14.44Q11.80-13.99 11.80-13.29Q11.80-12.59 11.29-12.14Q10.78-11.69 9.97-11.69Q9.16-11.69 8.65-12.14Q8.14-12.59 8.14-13.29ZM13.60-10.57L16.69-10.57L16.80-9.33Q17.89-10.76 19.81-10.76L19.81-10.76Q21.46-10.76 22.28-9.78Q23.10-8.79 23.13-6.81L23.13-6.81L23.13 0L19.82 0L19.82-6.67Q19.82-7.47 19.50-7.85Q19.18-8.22 18.33-8.22L18.33-8.22Q17.36-8.22 16.89-7.46L16.89-7.46L16.89 0L13.60 0L13.60-10.57ZM25.49-13.19L28.78-13.19L28.78-10.57L30.52-10.57L30.52-8.28L28.78-8.28L28.78-3.45Q28.78-2.85 28.99-2.62Q29.21-2.38 29.84-2.38L29.84-2.38Q30.33-2.38 30.66-2.44L30.66-2.44L30.66-0.09Q29.78 0.20 28.81 0.20L28.81 0.20Q27.11 0.20 26.30-0.61Q25.49-1.41 25.49-3.04L25.49-3.04L25.49-8.28L24.14-8.28L24.14-10.57L25.49-10.57L25.49-13.19ZM38.26-10.64L38.20-7.59L37.12-7.67Q35.57-7.67 35.13-6.69L35.13-6.69L35.13 0L31.84 0L31.84-10.57L34.92-10.57L35.03-9.21Q35.86-10.76 37.34-10.76L37.34-10.76Q37.87-10.76 38.26-10.64L38.26-10.64ZM48.34 0L45.05 0Q44.87-0.32 44.74-0.95L44.74-0.95Q43.83 0.20 42.20 0.20L42.20 0.20Q40.70 0.20 39.66-0.71Q38.61-1.61 38.61-2.98L38.61-2.98Q38.61-4.70 39.88-5.58Q41.15-6.46 43.57-6.46L43.57-6.46L44.59-6.46L44.59-7.01Q44.59-8.47 43.33-8.47L43.33-8.47Q42.16-8.47 42.16-7.31L42.16-7.31L38.87-7.31Q38.87-8.85 40.17-9.80Q41.47-10.76 43.50-10.76Q45.52-10.76 46.69-9.78Q47.86-8.79 47.89-7.07L47.89-7.07L47.89-2.39Q47.91-0.94 48.34-0.17L48.34-0.17L48.34 0ZM42.99-2.15L42.99-2.15Q43.60-2.15 44.01-2.41Q44.41-2.68 44.59-3.01L44.59-3.01L44.59-4.70L43.63-4.70Q41.91-4.70 41.91-3.15L41.91-3.15Q41.91-2.71 42.22-2.43Q42.52-2.15 42.99-2.15ZM54.18-2.34L54.18-2.34Q54.87-2.34 55.25-2.72Q55.63-3.10 55.63-3.77L55.63-3.77L58.71-3.77Q58.71-2.03 57.47-0.92Q56.22 0.20 54.26 0.20L54.26 0.20Q51.95 0.20 50.63-1.25Q49.30-2.70 49.30-5.25L49.30-5.25L49.30-5.39Q49.30-6.99 49.89-8.22Q50.48-9.44 51.59-10.10Q52.71-10.76 54.23-10.76L54.23-10.76Q56.29-10.76 57.50-9.62Q58.71-8.48 58.71-6.52L58.71-6.52L55.63-6.52Q55.63-7.34 55.22-7.78Q54.82-8.22 54.15-8.22L54.15-8.22Q52.87-8.22 52.66-6.59L52.66-6.59Q52.59-6.07 52.59-5.17L52.59-5.17Q52.59-3.57 52.97-2.96Q53.35-2.34 54.18-2.34ZM66.65 0L64.35-3.94L63.42-3.01L63.42 0L60.13 0L60.13-15.01L63.42-15.01L63.42-7.04L63.75-7.48L66.23-10.57L70.18-10.57L66.47-6.22L70.42 0L66.65 0Z"></path></g></g></svg>